<svg version="1.1" xmlns="http://www.w3.org/2000/svg" viewBox="-288.7 -2920.3999999999996 4911.6998046875 3296.1"><desc>Created with Snap</desc><defs></defs><g><g><g transform="matrix(0.5,0,0,-0.5,0,0)"><path d="M844 1276L844 115Q844 47 835 -1Q827 -49 812 -79Q797 -109 775 -123Q754 -137 729 -137Q710 -137 687 -124Q664 -111 643 -92Q623 -73 609 -53Q596 -33 596 -18Q596 -8 598 -6Q601 -3 605 -4Q610 -4 616 -6Q623 -8 631 -8Q659 -8 671 27Q684 63 684 141L684 1272Q589 1264 501 1238Q413 1213 346 1162Q279 1111 239 1029Q199 948 199 829Q199 776 209 733Q220 691 237 657Q254 623 274 597Q295 571 315 551Q332 556 339 547Q346 538 346 522Q346 502 337 480Q329 459 315 441Q301 424 283 412Q266 401 248 401Q240 401 232 403Q225 405 217 412Q195 428 164 464Q133 501 105 555Q77 609 57 678Q37 748 37 829Q37 977 92 1090Q147 1203 245 1279Q343 1356 477 1395Q612 1434 772 1434Q809 1434 861 1433Q914 1433 966 1432Q1018 1431 1059 1430Q1101 1430 1116 1430Q1129 1430 1137 1432Q1146 1435 1151 1438Q1157 1441 1160 1443Q1163 1446 1165 1446Q1170 1446 1174 1439Q1179 1433 1182 1423Q1186 1414 1188 1402Q1190 1390 1190 1378Q1190 1360 1185 1340Q1180 1321 1170 1305Q1160 1290 1145 1280Q1130 1270 1110 1270Q1099 1270 1069 1270Q1040 1271 1002 1272Q964 1273 922 1274Q880 1275 844 1276ZM1702 78Q1733 78 1755 100Q1778 122 1794 155Q1811 188 1821 226Q1832 265 1839 299Q1846 331 1859 345Q1873 360 1889 360Q1901 360 1913 352Q1926 345 1936 333Q1947 321 1953 306Q1960 291 1960 276Q1960 274 1960 271Q1960 268 1958 262Q1945 211 1922 155Q1900 99 1865 52Q1830 5 1780 -26Q1731 -57 1665 -57Q1611 -57 1571 -34Q1531 -11 1508 27Q1477 -8 1433 -33Q1390 -57 1332 -57Q1272 -57 1226 -33Q1181 -9 1150 32Q1119 74 1103 130Q1088 187 1088 252Q1088 380 1129 482Q1170 584 1238 655Q1306 727 1393 765Q1481 803 1575 803Q1617 803 1643 780Q1669 757 1669 717Q1669 691 1663 680Q1658 670 1643 670Q1629 670 1614 672Q1599 674 1583 674Q1525 674 1465 648Q1405 623 1356 570Q1308 518 1277 437Q1246 357 1246 246Q1246 165 1277 121Q1308 78 1362 78Q1404 78 1432 109Q1460 141 1477 184L1477 500Q1477 515 1475 525Q1474 535 1472 542Q1471 549 1470 554Q1469 560 1469 565Q1469 581 1484 590Q1500 600 1522 600Q1573 600 1603 573Q1633 547 1633 510L1633 172Q1633 155 1637 138Q1641 122 1649 108Q1657 95 1670 86Q1684 78 1702 78ZM2003 1190L2003 606Q2014 627 2024 662Q2035 698 2044 741Q2054 784 2062 831Q2070 878 2076 923Q2082 968 2085 1007Q2089 1047 2089 1075Q2089 1177 2074 1224Q2059 1272 2034 1272Q2026 1272 2020 1264Q2014 1256 2010 1243Q2006 1231 2004 1216Q2003 1202 2003 1190ZM2294 297Q2300 327 2312 340Q2325 354 2339 355Q2354 357 2369 348Q2384 340 2395 326Q2406 312 2411 294Q2417 277 2413 260Q2399 219 2373 164Q2347 109 2307 60Q2267 11 2213 -23Q2159 -57 2089 -57Q2030 -57 1985 -38Q1940 -18 1909 17Q1879 53 1863 102Q1848 152 1848 213L1848 1145Q1848 1202 1862 1250Q1877 1299 1902 1333Q1928 1368 1962 1387Q1996 1407 2034 1407Q2079 1407 2110 1390Q2141 1374 2161 1347Q2181 1320 2192 1285Q2204 1250 2209 1213Q2214 1177 2215 1141Q2216 1106 2216 1077Q2216 1002 2202 919Q2188 837 2166 757Q2145 677 2119 603Q2094 530 2070 473Q2047 416 2028 380Q2010 344 2003 338L2003 219Q2003 157 2029 117Q2055 78 2112 78Q2147 78 2177 99Q2208 121 2231 153Q2255 186 2271 224Q2287 263 2294 297ZM2299 33L2299 1262Q2299 1284 2295 1297Q2292 1310 2288 1317Q2285 1325 2281 1329Q2278 1334 2278 1339Q2278 1345 2284 1349Q2290 1353 2300 1356Q2310 1359 2321 1360Q2333 1362 2344 1362Q2395 1362 2424 1335Q2454 1309 2454 1272L2454 633Q2479 667 2506 697Q2534 728 2564 751Q2594 775 2626 789Q2659 803 2694 803Q2742 803 2776 784Q2810 766 2832 735Q2855 704 2865 664Q2876 625 2876 582Q2876 523 2857 471Q2838 420 2809 378Q2780 336 2745 303Q2711 270 2680 248Q2687 215 2699 184Q2712 154 2730 130Q2748 106 2771 92Q2795 78 2825 78Q2860 78 2890 99Q2921 121 2944 153Q2968 186 2984 224Q3000 263 3007 297Q3013 328 3025 342Q3038 356 3052 357Q3067 359 3082 350Q3097 341 3108 326Q3119 312 3124 294Q3130 276 3126 260Q3112 219 3086 164Q3060 109 3020 60Q2980 11 2926 -23Q2872 -57 2802 -57Q2742 -57 2692 -26Q2643 5 2607 52Q2572 99 2553 155Q2534 211 2534 262Q2534 278 2548 294Q2562 311 2583 330Q2605 350 2629 374Q2654 398 2675 428Q2697 458 2711 495Q2725 533 2725 580Q2725 618 2706 642Q2688 666 2659 666Q2641 666 2615 652Q2590 639 2562 606Q2534 573 2506 518Q2478 464 2454 383L2454 31Q2454 16 2453 0Q2453 -15 2447 -28Q2442 -40 2430 -49Q2419 -57 2397 -57Q2382 -57 2364 -54Q2347 -50 2332 -41Q2318 -31 2308 -14Q2299 4 2299 33ZM3124 985Q3099 985 3076 995Q3054 1005 3037 1022Q3021 1039 3011 1061Q3001 1084 3001 1110Q3001 1137 3011 1160Q3021 1183 3037 1199Q3054 1216 3076 1225Q3099 1235 3124 1235Q3151 1235 3174 1225Q3197 1216 3213 1199Q3230 1183 3239 1160Q3249 1137 3249 1110Q3249 1084 3239 1061Q3230 1039 3213 1022Q3197 1005 3174 995Q3151 985 3124 985ZM3171 692L3171 172Q3171 165 3172 149Q3173 134 3178 118Q3183 102 3194 90Q3205 78 3225 78Q3255 78 3277 100Q3300 122 3316 155Q3333 188 3344 226Q3355 265 3362 299Q3368 330 3380 344Q3393 358 3407 359Q3422 361 3436 352Q3451 343 3462 328Q3474 314 3479 296Q3485 278 3481 262Q3467 211 3444 155Q3422 99 3387 52Q3352 5 3303 -26Q3254 -57 3188 -57Q3147 -57 3115 -42Q3083 -26 3061 0Q3039 26 3027 61Q3016 96 3016 135L3016 682Q3016 711 3011 724Q3007 737 3007 748Q3007 763 3023 772Q3039 782 3061 782Q3112 782 3141 755Q3171 729 3171 692ZM3841 596Q3841 539 3821 479Q3802 419 3763 365Q3725 312 3668 269Q3612 227 3538 205Q3548 179 3564 155Q3581 132 3604 115Q3627 98 3657 88Q3688 78 3728 78Q3788 78 3831 100Q3874 123 3903 160Q3933 197 3951 243Q3969 289 3978 336Q3985 370 4006 381Q4028 393 4050 387Q4073 381 4089 361Q4106 342 4103 315Q4099 284 4089 244Q4080 204 4061 163Q4042 122 4012 82Q3983 43 3940 12Q3897 -19 3839 -38Q3781 -57 3706 -57Q3636 -57 3570 -30Q3505 -2 3454 49Q3404 101 3373 176Q3343 252 3343 348Q3343 445 3370 528Q3397 612 3441 673Q3485 734 3541 768Q3597 803 3656 803Q3699 803 3733 788Q3768 773 3792 745Q3816 718 3828 680Q3841 642 3841 596ZM3511 354Q3511 345 3512 336Q3513 327 3513 317Q3551 335 3582 363Q3613 391 3635 427Q3657 463 3669 505Q3681 548 3681 594Q3681 628 3669 647Q3658 666 3638 666Q3613 666 3593 649Q3574 632 3559 604Q3545 577 3535 542Q3526 508 3520 473Q3514 438 3512 406Q3510 375 3511 354ZM4767 2L4767 1073Q4767 1102 4762 1115Q4758 1128 4758 1139Q4758 1154 4774 1164Q4790 1174 4812 1174Q4863 1174 4894 1147Q4926 1121 4926 1083L4926 414Q4961 418 5005 434Q5050 450 5097 478Q5144 507 5188 549Q5233 591 5268 647Q5303 703 5324 773Q5346 844 5346 930Q5346 988 5327 1050Q5309 1112 5269 1163Q5229 1214 5165 1247Q5102 1280 5012 1280Q4889 1280 4801 1242Q4713 1204 4657 1140Q4602 1076 4576 991Q4550 907 4550 813Q4550 745 4561 698Q4573 652 4587 622Q4601 593 4613 579Q4625 565 4627 563Q4644 568 4651 559Q4658 550 4658 535Q4658 521 4648 493Q4639 465 4623 440Q4607 416 4586 403Q4565 391 4543 408Q4531 419 4506 448Q4481 477 4456 525Q4432 574 4413 642Q4394 711 4394 801Q4394 945 4439 1061Q4484 1178 4565 1261Q4647 1344 4760 1389Q4873 1434 5010 1434Q5122 1434 5213 1397Q5305 1360 5369 1293Q5434 1227 5469 1135Q5504 1043 5504 934Q5504 800 5456 686Q5408 573 5328 485Q5248 397 5143 339Q5039 281 4926 260L4926 -10Q4926 -36 4909 -47Q4892 -57 4869 -57Q4851 -57 4833 -52Q4815 -47 4800 -39Q4786 -31 4776 -21Q4767 -10 4767 2ZM6339 338Q6341 350 6352 358Q6364 366 6379 369Q6394 372 6410 369Q6427 366 6439 355Q6452 345 6457 326Q6463 308 6456 279Q6447 237 6426 200Q6406 164 6375 136Q6344 108 6302 92Q6260 76 6208 76Q6180 76 6155 79Q6131 82 6108 90Q6070 24 6010 -17Q5950 -57 5862 -57Q5784 -57 5728 -27Q5672 4 5635 56Q5598 109 5580 178Q5563 247 5563 324Q5563 437 5589 526Q5616 616 5651 678Q5686 741 5720 774Q5755 807 5772 807Q5792 807 5808 789Q5825 772 5832 748Q5840 725 5836 701Q5833 677 5813 664Q5801 645 5784 620Q5768 595 5753 557Q5739 520 5729 466Q5719 412 5719 336Q5719 271 5730 223Q5742 175 5762 142Q5783 110 5809 94Q5836 78 5866 78Q5910 78 5938 99Q5967 121 5987 156Q5915 218 5877 313Q5840 409 5840 520Q5840 568 5850 611Q5861 655 5881 688Q5902 721 5933 740Q5964 760 6005 760Q6041 760 6073 734Q6105 708 6129 662Q6153 616 6166 553Q6180 490 6180 416Q6180 359 6173 303Q6166 247 6151 195Q6162 191 6171 190Q6181 190 6192 190Q6225 190 6250 202Q6276 214 6294 234Q6312 254 6323 281Q6334 308 6339 338ZM5948 528Q5948 459 5969 397Q5991 335 6026 289Q6032 338 6032 383Q6032 435 6030 479Q6029 524 6023 556Q6018 588 6008 606Q5999 625 5983 625Q5948 625 5948 528ZM6786 -57Q6750 -57 6712 -46Q6675 -35 6644 -8Q6614 19 6594 63Q6575 108 6575 176Q6575 275 6601 385Q6628 496 6678 629L6522 629L6499 629Q6498 599 6495 553Q6493 507 6487 455Q6481 403 6471 350Q6462 297 6448 252Q6438 220 6416 215Q6395 210 6374 222Q6353 235 6340 259Q6327 283 6334 309Q6342 340 6348 384Q6354 429 6357 478Q6361 528 6363 577Q6365 627 6366 666Q6328 687 6303 719Q6278 752 6278 797Q6278 818 6286 835Q6295 853 6309 865Q6323 878 6342 884Q6361 891 6381 891Q6399 891 6418 886Q6438 881 6455 868Q6473 855 6487 834Q6501 813 6510 782Q6535 779 6552 777Q6570 776 6582 775Q6594 774 6602 774Q6610 774 6618 774L6725 774Q6734 774 6751 763Q6769 752 6786 734Q6803 717 6814 697Q6826 677 6823 659Q6823 653 6816 630Q6809 607 6799 572Q6789 537 6777 491Q6765 446 6755 396Q6745 346 6738 292Q6731 239 6731 188Q6731 167 6736 147Q6741 127 6751 111Q6761 96 6776 87Q6792 78 6813 78Q6848 78 6873 100Q6898 122 6915 155Q6932 188 6942 226Q6953 265 6960 299Q6966 331 6980 345Q6994 360 7009 360Q7021 360 7034 352Q7047 345 7057 333Q7068 321 7074 306Q7081 291 7081 276Q7081 271 7080 268Q7079 265 7079 262Q7065 211 7042 155Q7020 99 6985 52Q6950 5 6901 -26Q6852 -57 6786 -57ZM6784 963Q6807 961 6835 960Q6859 958 6893 957Q6927 957 6969 956L6969 1303Q6969 1325 6965 1338Q6962 1351 6958 1358Q6955 1366 6951 1370Q6948 1375 6948 1380Q6948 1386 6954 1390Q6960 1394 6970 1397Q6980 1400 6991 1401Q7003 1403 7014 1403Q7065 1403 7094 1376Q7124 1350 7124 1313L7124 954Q7218 954 7322 956Q7427 958 7532 963Q7546 978 7554 974Q7563 970 7565 955Q7568 940 7566 918Q7564 896 7558 875Q7552 855 7541 840Q7531 825 7518 825Q7395 822 7300 821Q7206 821 7124 821L7124 172Q7124 122 7143 100Q7162 78 7194 78Q7225 78 7247 100Q7270 122 7286 155Q7303 188 7313 226Q7324 265 7331 299Q7337 331 7351 345Q7365 360 7380 360Q7392 360 7405 352Q7418 345 7428 333Q7439 321 7445 306Q7452 291 7452 276Q7452 274 7452 271Q7452 268 7450 262Q7437 211 7414 155Q7392 99 7356 52Q7321 5 7272 -26Q7223 -57 7157 -57Q7116 -57 7081 -45Q7047 -32 7022 -5Q6997 23 6983 66Q6969 109 6969 170L6969 821Q6935 821 6908 821Q6882 822 6864 823Q6843 824 6827 825Q6803 825 6784 846Q6766 868 6758 894Q6751 920 6756 941Q6762 963 6784 963ZM7919 78Q7950 78 7972 100Q7995 122 8011 155Q8028 188 8038 226Q8049 265 8056 299Q8063 331 8076 345Q8090 360 8106 360Q8118 360 8130 352Q8143 345 8153 333Q8164 321 8170 306Q8177 291 8177 276Q8177 274 8177 271Q8177 268 8175 262Q8162 211 8139 155Q8117 99 8082 52Q8047 5 7997 -26Q7948 -57 7882 -57Q7828 -57 7788 -34Q7748 -11 7725 27Q7694 -8 7650 -33Q7607 -57 7549 -57Q7489 -57 7443 -33Q7398 -9 7367 32Q7336 74 7320 130Q7305 187 7305 252Q7305 380 7346 482Q7387 584 7455 655Q7523 727 7610 765Q7698 803 7792 803Q7834 803 7860 780Q7886 757 7886 717Q7886 691 7880 680Q7875 670 7860 670Q7846 670 7831 672Q7816 674 7800 674Q7742 674 7682 648Q7622 623 7573 570Q7525 518 7494 437Q7463 357 7463 246Q7463 165 7494 121Q7525 78 7579 78Q7621 78 7649 109Q7677 141 7694 184L7694 500Q7694 515 7692 525Q7691 535 7689 542Q7688 549 7687 554Q7686 560 7686 565Q7686 581 7701 590Q7717 600 7739 600Q7790 600 7820 573Q7850 547 7850 510L7850 172Q7850 155 7854 138Q7858 122 7866 108Q7874 95 7887 86Q7901 78 7919 78ZM8220 1190L8220 606Q8231 627 8241 662Q8252 698 8261 741Q8271 784 8279 831Q8287 878 8293 923Q8299 968 8302 1007Q8306 1047 8306 1075Q8306 1177 8291 1224Q8276 1272 8251 1272Q8243 1272 8237 1264Q8231 1256 8227 1243Q8223 1231 8221 1216Q8220 1202 8220 1190ZM8511 297Q8517 327 8529 340Q8542 354 8556 355Q8571 357 8586 348Q8601 340 8612 326Q8623 312 8628 294Q8634 277 8630 260Q8616 219 8590 164Q8564 109 8524 60Q8484 11 8430 -23Q8376 -57 8306 -57Q8247 -57 8202 -38Q8157 -18 8126 17Q8096 53 8080 102Q8065 152 8065 213L8065 1145Q8065 1202 8079 1250Q8094 1299 8119 1333Q8145 1368 8179 1387Q8213 1407 8251 1407Q8296 1407 8327 1390Q8358 1374 8378 1347Q8398 1320 8409 1285Q8421 1250 8426 1213Q8431 1177 8432 1141Q8433 1106 8433 1077Q8433 1002 8419 919Q8405 837 8383 757Q8362 677 8336 603Q8311 530 8287 473Q8264 416 8245 380Q8227 344 8220 338L8220 219Q8220 157 8246 117Q8272 78 8329 78Q8364 78 8394 99Q8425 121 8448 153Q8472 186 8488 224Q8504 263 8511 297Z" fill="#424077" style=""></path></g></g><g transform="matrix(2,0,0,2,1049.6499,-1167.2)"><g transform="matrix(0.5,0,0,-0.5,0,0)"><path d="M844 1276L844 115Q844 47 835 -1Q827 -49 812 -79Q797 -109 775 -123Q754 -137 729 -137Q710 -137 687 -124Q664 -111 643 -92Q623 -73 609 -53Q596 -33 596 -18Q596 -8 598 -6Q601 -3 605 -4Q610 -4 616 -6Q623 -8 631 -8Q659 -8 671 27Q684 63 684 141L684 1272Q589 1264 501 1238Q413 1213 346 1162Q279 1111 239 1029Q199 948 199 829Q199 776 209 733Q220 691 237 657Q254 623 274 597Q295 571 315 551Q332 556 339 547Q346 538 346 522Q346 502 337 480Q329 459 315 441Q301 424 283 412Q266 401 248 401Q240 401 232 403Q225 405 217 412Q195 428 164 464Q133 501 105 555Q77 609 57 678Q37 748 37 829Q37 977 92 1090Q147 1203 245 1279Q343 1356 477 1395Q612 1434 772 1434Q809 1434 861 1433Q914 1433 966 1432Q1018 1431 1059 1430Q1101 1430 1116 1430Q1129 1430 1137 1432Q1146 1435 1151 1438Q1157 1441 1160 1443Q1163 1446 1165 1446Q1170 1446 1174 1439Q1179 1433 1182 1423Q1186 1414 1188 1402Q1190 1390 1190 1378Q1190 1360 1185 1340Q1180 1321 1170 1305Q1160 1290 1145 1280Q1130 1270 1110 1270Q1099 1270 1069 1270Q1040 1271 1002 1272Q964 1273 922 1274Q880 1275 844 1276ZM1461 2L1461 1073Q1461 1102 1456 1115Q1452 1128 1452 1139Q1452 1154 1468 1164Q1484 1174 1506 1174Q1557 1174 1588 1147Q1620 1121 1620 1083L1620 414Q1655 418 1699 434Q1744 450 1791 478Q1838 507 1882 549Q1927 591 1962 647Q1997 703 2018 773Q2040 844 2040 930Q2040 988 2021 1050Q2003 1112 1963 1163Q1923 1214 1859 1247Q1796 1280 1706 1280Q1583 1280 1495 1242Q1407 1204 1351 1140Q1296 1076 1270 991Q1244 907 1244 813Q1244 745 1255 698Q1267 652 1281 622Q1295 593 1307 579Q1319 565 1321 563Q1338 568 1345 559Q1352 550 1352 535Q1352 521 1342 493Q1333 465 1317 440Q1301 416 1280 403Q1259 391 1237 408Q1225 419 1200 448Q1175 477 1150 525Q1126 574 1107 642Q1088 711 1088 801Q1088 945 1133 1061Q1178 1178 1259 1261Q1341 1344 1454 1389Q1567 1434 1704 1434Q1816 1434 1907 1397Q1999 1360 2063 1293Q2128 1227 2163 1135Q2198 1043 2198 934Q2198 800 2150 686Q2102 573 2022 485Q1942 397 1837 339Q1733 281 1620 260L1620 -10Q1620 -36 1603 -47Q1586 -57 1563 -57Q1545 -57 1527 -52Q1509 -47 1494 -39Q1480 -31 1470 -21Q1461 -10 1461 2Z" fill="#424077" style=""></path></g></g></g></svg>